HIERARCHY
ROOT Hips
{
	OFFSET 0.000000 97.167313 0.000000
	CHANNELS 6 Xposition Yposition Zposition Xrotation Yrotation Zrotation
	JOINT Spine
	{
		OFFSET 0.000000 13.784798 0.064400
		CHANNELS 3 Xrotation Yrotation Zrotation
		JOINT Spine1
		{
			OFFSET 0.000000 12.037903 0.404700
			CHANNELS 3 Xrotation Yrotation Zrotation
			JOINT Spine2
			{
				OFFSET 0.000000 17.795601 0.420200
				CHANNELS 3 Xrotation Yrotation Zrotation
				JOINT Neck
				{
					OFFSET 0.000000 39.131302 11.954600
					CHANNELS 3 Xrotation Yrotation Zrotation
					JOINT Head
					{
						OFFSET 0.000000 14.456192 15.627699
						CHANNELS 3 Xrotation Yrotation Zrotation
						JOINT HeadTop_End
						{
							OFFSET 0.000000 15.703506 7.603401
							CHANNELS 3 Xrotation Yrotation Zrotation
							End Site
							{
								OFFSET 0.000000 17.447403 0.000000
							}
						}
					}
				}
				JOINT LeftShoulder
				{
					OFFSET 17.399500 24.608795 1.168800
					CHANNELS 3 Xrotation Yrotation Zrotation
					JOINT LeftArm
					{
						OFFSET 18.980635 5.765305 1.818600
						CHANNELS 3 Xrotation Yrotation Zrotation
						JOINT LeftForeArm
						{
							OFFSET 49.290169 0.000000 0.000000
							CHANNELS 3 Xrotation Yrotation Zrotation
							JOINT LeftHand
							{
								OFFSET 31.562012 0.000000 0.000000
								CHANNELS 3 Xrotation Yrotation Zrotation
								JOINT LeftHandThumb1
								{
									OFFSET 6.133995 -4.388519 7.076070
									CHANNELS 3 Xrotation Yrotation Zrotation
									JOINT LeftHandThumb2
									{
										OFFSET 6.037666 -3.485840 3.485847
										CHANNELS 3 Xrotation Yrotation Zrotation
										JOINT LeftHandThumb3
										{
											OFFSET 6.496506 -3.750763 3.750761
											CHANNELS 3 Xrotation Yrotation Zrotation
											JOINT LeftHandThumb4
											{
												OFFSET 5.616882 -3.242905 3.242910
												CHANNELS 3 Xrotation Yrotation Zrotation
												End Site
												{
													OFFSET -1.254608 7.132141 0.375429
												}
											}
										}
									}
								}
								JOINT LeftHandPinky1
								{
									OFFSET 18.920792 -0.453171 -11.426712
									CHANNELS 3 Xrotation Yrotation Zrotation
									JOINT LeftHandPinky2
									{
										OFFSET 4.919586 0.000000 0.000000
										CHANNELS 3 Xrotation Yrotation Zrotation
										JOINT LeftHandPinky3
										{
											OFFSET 5.233047 0.000000 0.000000
											CHANNELS 3 Xrotation Yrotation Zrotation
											JOINT LeftHandPinky4
											{
												OFFSET 5.571716 0.000000 0.000000
												CHANNELS 3 Xrotation Yrotation Zrotation
												End Site
												{
													OFFSET -3.459808 4.342407 -0.466164
												}
											}
										}
									}
								}
								JOINT LeftHandRing1
								{
									OFFSET 22.726120 -0.094986 -6.500475
									CHANNELS 3 Xrotation Yrotation Zrotation
									JOINT LeftHandRing2
									{
										OFFSET 6.408615 0.000000 0.000000
										CHANNELS 3 Xrotation Yrotation Zrotation
										JOINT LeftHandRing3
										{
											OFFSET 6.150223 0.000000 0.000000
											CHANNELS 3 Xrotation Yrotation Zrotation
											JOINT LeftHandRing4
											{
												OFFSET 6.145386 0.000000 0.000000
												CHANNELS 3 Xrotation Yrotation Zrotation
												End Site
												{
													OFFSET -3.671402 4.923981 -0.202372
												}
											}
										}
									}
								}
								JOINT LeftHandMiddle1
								{
									OFFSET 23.373947 0.000000 0.000001
									CHANNELS 3 Xrotation Yrotation Zrotation
									JOINT LeftHandMiddle2
									{
										OFFSET 6.996567 0.000000 0.000000
										CHANNELS 3 Xrotation Yrotation Zrotation
										JOINT LeftHandMiddle3
										{
											OFFSET 7.015945 0.000000 0.000000
											CHANNELS 3 Xrotation Yrotation Zrotation
											JOINT LeftHandMiddle4
											{
												OFFSET 7.721573 0.000000 0.000000
												CHANNELS 3 Xrotation Yrotation Zrotation
												End Site
												{
													OFFSET -4.651108 6.158463 0.251582
												}
											}
										}
									}
								}
								JOINT LeftHandIndex1
								{
									OFFSET 21.310577 -0.490082 6.209344
									CHANNELS 3 Xrotation Yrotation Zrotation
									JOINT LeftHandIndex2
									{
										OFFSET 7.536453 0.000000 0.000000
										CHANNELS 3 Xrotation Yrotation Zrotation
										JOINT LeftHandIndex3
										{
											OFFSET 7.512344 0.000000 0.000000
											CHANNELS 3 Xrotation Yrotation Zrotation
											JOINT LeftHandIndex4
											{
												OFFSET 10.212402 0.000000 0.000001
												CHANNELS 3 Xrotation Yrotation Zrotation
												End Site
												{
													OFFSET -5.180801 8.690506 1.388433
												}
											}
										}
									}
								}
							}
						}
					}
				}
				JOINT RightShoulder
				{
					OFFSET -17.399500 24.608795 1.168800
					CHANNELS 3 Xrotation Yrotation Zrotation
					JOINT RightArm
					{
						OFFSET -18.980635 5.765305 1.818600
						CHANNELS 3 Xrotation Yrotation Zrotation
						JOINT RightForeArm
						{
							OFFSET -49.290169 0.000000 0.000000
							CHANNELS 3 Xrotation Yrotation Zrotation
							JOINT RightHand
							{
								OFFSET -31.562012 0.000000 0.000000
								CHANNELS 3 Xrotation Yrotation Zrotation
								JOINT RightHandThumb1
								{
									OFFSET -6.133995 -4.388519 7.076070
									CHANNELS 3 Xrotation Yrotation Zrotation
									JOINT RightHandThumb2
									{
										OFFSET -6.037666 -3.485840 3.485847
										CHANNELS 3 Xrotation Yrotation Zrotation
										JOINT RightHandThumb3
										{
											OFFSET -6.496506 -3.750763 3.750761
											CHANNELS 3 Xrotation Yrotation Zrotation
											JOINT RightHandThumb4
											{
												OFFSET -5.616882 -3.242905 3.242910
												CHANNELS 3 Xrotation Yrotation Zrotation
												End Site
												{
													OFFSET 1.254608 7.132141 0.375429
												}
											}
										}
									}
								}
								JOINT RightHandIndex1
								{
									OFFSET -21.310577 -0.490082 6.209344
									CHANNELS 3 Xrotation Yrotation Zrotation
									JOINT RightHandIndex2
									{
										OFFSET -7.536453 0.000000 0.000000
										CHANNELS 3 Xrotation Yrotation Zrotation
										JOINT RightHandIndex3
										{
											OFFSET -7.512344 0.000000 0.000000
											CHANNELS 3 Xrotation Yrotation Zrotation
											JOINT RightHandIndex4
											{
												OFFSET -10.212402 0.000000 0.000001
												CHANNELS 3 Xrotation Yrotation Zrotation
												End Site
												{
													OFFSET 5.180801 8.690506 1.388433
												}
											}
										}
									}
								}
								JOINT RightHandMiddle1
								{
									OFFSET -23.373947 0.000000 0.000001
									CHANNELS 3 Xrotation Yrotation Zrotation
									JOINT RightHandMiddle2
									{
										OFFSET -6.996567 0.000000 0.000000
										CHANNELS 3 Xrotation Yrotation Zrotation
										JOINT RightHandMiddle3
										{
											OFFSET -7.015945 0.000000 0.000000
											CHANNELS 3 Xrotation Yrotation Zrotation
											JOINT RightHandMiddle4
											{
												OFFSET -7.721573 0.000000 0.000000
												CHANNELS 3 Xrotation Yrotation Zrotation
												End Site
												{
													OFFSET 4.651108 6.158463 0.251582
												}
											}
										}
									}
								}
								JOINT RightHandRing1
								{
									OFFSET -22.726120 -0.094986 -6.500475
									CHANNELS 3 Xrotation Yrotation Zrotation
									JOINT RightHandRing2
									{
										OFFSET -6.408615 0.000000 0.000000
										CHANNELS 3 Xrotation Yrotation Zrotation
										JOINT RightHandRing3
										{
											OFFSET -6.150223 0.000000 0.000000
											CHANNELS 3 Xrotation Yrotation Zrotation
											JOINT RightHandRing4
											{
												OFFSET -6.145386 0.000000 0.000000
												CHANNELS 3 Xrotation Yrotation Zrotation
												End Site
												{
													OFFSET 3.671402 4.923981 -0.202372
												}
											}
										}
									}
								}
								JOINT RightHandPinky1
								{
									OFFSET -18.920792 -0.453171 -11.426712
									CHANNELS 3 Xrotation Yrotation Zrotation
									JOINT RightHandPinky2
									{
										OFFSET -4.919586 0.000000 0.000000
										CHANNELS 3 Xrotation Yrotation Zrotation
										JOINT RightHandPinky3
										{
											OFFSET -5.233047 0.000000 0.000000
											CHANNELS 3 Xrotation Yrotation Zrotation
											JOINT RightHandPinky4
											{
												OFFSET -5.571716 0.000000 0.000000
												CHANNELS 3 Xrotation Yrotation Zrotation
												End Site
												{
													OFFSET 3.459808 4.342407 -0.466164
												}
											}
										}
									}
								}
							}
						}
					}
				}
			}
		}
	}
	JOINT LeftUpLeg
	{
		OFFSET 19.899099 -7.885101 -3.429500
		CHANNELS 3 Xrotation Yrotation Zrotation
		JOINT LeftLeg
		{
			OFFSET 1.745560 -36.997807 10.304700
			CHANNELS 3 Xrotation Yrotation Zrotation
			JOINT LeftFoot
			{
				OFFSET -1.745558 -29.803308 -13.615400
				CHANNELS 3 Xrotation Yrotation Zrotation
				JOINT LeftToeBase
				{
					OFFSET 1.181900 -18.539904 15.226099
					CHANNELS 3 Xrotation Yrotation Zrotation
					JOINT LeftToe_End
					{
						OFFSET -0.863701 1.402801 16.534700
						CHANNELS 3 Xrotation Yrotation Zrotation
						End Site
						{
							OFFSET 0.000000 16.616566 0.000000
						}
					}
				}
			}
		}
	}
	JOINT RightUpLeg
	{
		OFFSET -19.899099 -7.885101 -3.429500
		CHANNELS 3 Xrotation Yrotation Zrotation
		JOINT RightLeg
		{
			OFFSET -1.745560 -36.997807 10.304700
			CHANNELS 3 Xrotation Yrotation Zrotation
			JOINT RightFoot
			{
				OFFSET 1.745558 -29.803308 -13.615400
				CHANNELS 3 Xrotation Yrotation Zrotation
				JOINT RightToeBase
				{
					OFFSET -1.181900 -18.539904 15.226099
					CHANNELS 3 Xrotation Yrotation Zrotation
					JOINT RightToe_End
					{
						OFFSET 0.863701 1.402801 16.534700
						CHANNELS 3 Xrotation Yrotation Zrotation
						End Site
						{
							OFFSET 0.000000 16.616566 0.000000
						}
					}
				}
			}
		}
	}
}
MOTION
Frames: 4
Frame Time: 0.033333
-1.600364 34.007149 1.999632 -18.520936 -41.027789 -8.484460 13.068920 3.833195 -5.557157 18.200678 6.256126 -0.270540 21.487493 7.182853 -1.108747 -1.132903 1.919450 3.541045 -15.332748 18.166411 4.893122 0.000000 -0.000001 -0.000000 -2.983342 -6.652182 0.026106 -66.587528 -20.593037 -76.357185 -93.586788 19.485130 -79.774649 -24.376117 -1.464654 17.045808 0.699128 9.503373 -2.418149 5.975217 12.647555 1.348365 -23.873545 -17.664263 1.604944 0.000003 0.000003 -0.000001 -7.938273 1.609087 -6.495695 2.210578 4.583647 -51.475167 0.883828 3.096063 -31.858082 -0.000003 -0.000006 -0.000005 1.254233 -0.073744 -17.945767 3.754096 5.463595 -68.965301 5.298508 9.638334 -33.746940 -0.000002 0.000001 0.000005 10.058169 -1.800589 -20.644699 1.774246 4.200515 -45.782034 1.632167 4.057750 -43.809414 0.000001 0.000001 0.000009 9.479719 -1.289793 -20.785539 0.709451 2.796414 -28.467025 0.714006 2.804754 -28.559739 0.000000 0.000003 0.000004 -6.875953 -5.828751 -1.756004 -8.922124 48.422619 46.052407 36.589747 134.429010 -41.383863 -0.386550 1.788057 -19.951510 13.942489 -4.273660 -5.300484 7.113257 -20.767591 -2.619555 -3.463362 -24.899718 -18.660522 -0.000002 0.000000 -0.000002 0.357776 -5.832663 5.175934 0.094373 -0.933737 11.539833 0.777640 -2.578448 33.559889 -0.000001 -0.000005 -0.000002 3.764076 -12.080516 1.143769 5.714248 -4.535802 103.133377 3.160469 -4.410615 71.234925 0.000001 -0.000001 -0.000004 -12.155645 -12.623936 9.228349 6.566867 -4.248355 114.232271 3.755119 -4.569163 78.819761 -0.000000 0.000000 -0.000007 -17.635735 -10.496895 3.325441 4.993674 -4.645014 94.147942 3.647301 -4.546617 77.463361 0.000001 0.000001 -0.000001 -62.541686 -32.412687 73.967506 106.027096 -18.826918 -21.334762 5.842671 -9.212721 -5.331845 -0.215429 0.098817 0.217589 0.000000 0.000000 -0.000000 49.816695 22.640928 -73.555263 102.605438 31.609306 18.524195 -62.649924 6.507676 -7.058113 -47.855177 -21.772271 30.062962 -0.000000 0.000001 -0.000000 
-1.595681 34.007751 1.997871 -18.566718 -41.017369 -8.520624 13.102021 3.830108 -5.573177 18.180218 6.244027 -0.279724 21.424849 7.164976 -1.080595 -1.132995 1.921688 3.542755 -15.294264 18.220768 4.957206 -0.000002 -0.000000 -0.000004 -3.076609 -6.694072 0.025966 -66.446437 -20.560953 -76.268802 -93.570470 19.555212 -79.754630 -24.340416 -1.516057 17.047471 0.699127 9.503376 -2.418148 5.975215 12.647552 1.348362 -23.873540 -17.664263 1.604946 0.000004 0.000001 -0.000001 -7.938276 1.609085 -6.495695 2.210583 4.583643 -51.475171 0.883833 3.096063 -31.858082 -0.000001 -0.000001 -0.000006 1.254235 -0.073747 -17.945764 3.754094 5.463598 -68.965308 5.298507 9.638335 -33.746950 0.000002 0.000003 0.000005 10.058169 -1.800590 -20.644696 1.774247 4.200517 -45.782037 1.632166 4.057751 -43.809404 0.000003 -0.000001 0.000004 9.479716 -1.289791 -20.785538 0.709451 2.796414 -28.467026 0.714009 2.804751 -28.559731 0.000000 0.000001 0.000002 -6.879340 -5.819870 -1.755262 -8.994000 48.410240 46.152042 36.666856 134.399736 -41.462482 -0.424476 1.767228 -19.876090 13.942489 -4.273661 -5.300485 7.113258 -20.767593 -2.619555 -3.463362 -24.899716 -18.660522 -0.000000 0.000002 0.000003 0.357776 -5.832662 5.175934 0.094370 -0.933734 11.539831 0.777642 -2.578446 33.559889 -0.000001 -0.000003 -0.000004 3.764077 -12.080516 1.143769 5.714247 -4.535801 103.133377 3.160468 -4.410616 71.234918 -0.000001 -0.000000 -0.000006 -12.155645 -12.623938 9.228348 6.566867 -4.248354 114.232277 3.755119 -4.569163 78.819755 0.000000 -0.000001 -0.000003 -17.635733 -10.496899 3.325444 4.993672 -4.645015 94.147942 3.647304 -4.546614 77.463354 -0.000001 -0.000003 0.000004 -62.530812 -32.419872 73.958313 106.032622 -18.823798 -21.326268 5.851109 -9.212421 -5.320842 -0.215429 0.098817 0.217589 0.000000 -0.000000 -0.000000 49.820978 22.637537 -73.521147 102.620915 31.588706 18.492001 -62.649227 6.502354 -7.054924 -47.855177 -21.772271 30.062962 0.000001 -0.000003 -0.000000 
-1.590903 34.007973 1.995068 -18.615599 -41.006468 -8.558467 13.133772 3.827657 -5.585943 18.165979 6.234320 -0.288124 21.371493 7.149684 -1.056058 -1.068276 1.925966 3.528764 -15.341804 18.266921 5.038149 -0.000003 -0.000000 -0.000000 -3.166451 -6.744804 0.025100 -66.320577 -20.531127 -76.178152 -93.558893 19.618349 -79.730902 -24.313896 -1.562770 17.047952 0.699127 9.503377 -2.418148 5.975216 12.647555 1.348363 -23.873538 -17.664266 1.604943 -0.000002 0.000002 0.000000 -7.938279 1.609084 -6.495694 2.210580 4.583643 -51.475164 0.883823 3.096053 -31.858085 0.000003 -0.000005 0.000002 1.254234 -0.073746 -17.945760 3.754098 5.463593 -68.965308 5.298505 9.638334 -33.746947 0.000002 0.000000 0.000005 10.058168 -1.800595 -20.644699 1.774245 4.200520 -45.782037 1.632168 4.057750 -43.809404 -0.000002 -0.000002 0.000004 9.479716 -1.289791 -20.785538 0.709450 2.796421 -28.467025 0.714008 2.804751 -28.559736 -0.000000 0.000002 -0.000003 -6.888744 -5.779587 -1.751111 -9.038507 48.381474 46.232727 36.755311 134.413752 -41.556981 -0.401808 1.723681 -19.806403 13.942488 -4.273660 -5.300483 7.113255 -20.767597 -2.619555 -3.463361 -24.899719 -18.660519 -0.000004 0.000002 0.000002 0.357776 -5.832662 5.175934 0.094369 -0.933736 11.539830 0.777640 -2.578448 33.559892 -0.000001 -0.000001 -0.000001 3.764077 -12.080516 1.143769 5.714247 -4.535803 103.133377 3.160469 -4.410616 71.234918 0.000001 0.000000 -0.000009 -12.155647 -12.623936 9.228349 6.566867 -4.248355 114.232277 3.755118 -4.569166 78.819755 0.000001 -0.000000 -0.000003 -17.635736 -10.496894 3.325443 4.993675 -4.645011 94.147942 3.647305 -4.546612 77.463354 0.000002 -0.000001 0.000000 -62.512938 -32.429048 73.953129 106.036412 -18.821778 -21.321885 5.861479 -9.213407 -5.310154 -0.215429 0.098817 0.217589 -0.000000 -0.000000 -0.000000 49.825195 22.632313 -73.486661 102.638318 31.568062 18.457630 -62.649241 6.497768 -7.052321 -47.855174 -21.772270 30.062962 -0.000000 -0.000001 -0.000000 
-1.585842 34.008110 1.991352 -18.668135 -40.995827 -8.598543 13.167139 3.825339 -5.596534 18.156163 6.227119 -0.294233 21.326154 7.136920 -1.034979 -1.042909 1.926973 3.525249 -15.361859 18.310906 5.110410 -0.000001 0.000000 -0.000001 -3.250632 -6.789319 0.024295 -66.215972 -20.511449 -76.101039 -93.555382 19.653079 -79.698438 -24.315812 -1.600022 17.044338 0.699127 9.503373 -2.418148 5.975216 12.647555 1.348363 -23.873540 -17.664264 1.604942 0.000003 -0.000000 0.000000 -7.938274 1.609089 -6.495693 2.210576 4.583646 -51.475171 0.883829 3.096059 -31.858085 -0.000000 -0.000001 -0.000006 1.254233 -0.073744 -17.945765 3.754096 5.463606 -68.965301 5.298504 9.638334 -33.746947 0.000001 0.000004 0.000004 10.058170 -1.800588 -20.644699 1.774245 4.200516 -45.782037 1.632169 4.057750 -43.809404 -0.000002 -0.000001 0.000004 9.479716 -1.289793 -20.785538 0.709450 2.796419 -28.467026 0.714006 2.804748 -28.559731 -0.000003 -0.000002 -0.000001 -6.903349 -5.712280 -1.744047 -9.050611 48.344455 46.288892 36.859089 134.476972 -41.675157 -0.311817 1.658509 -19.741282 13.942490 -4.273661 -5.300484 7.113259 -20.767595 -2.619556 -3.463362 -24.899714 -18.660521 -0.000001 0.000000 -0.000003 0.357775 -5.832662 5.175935 0.094370 -0.933736 11.539829 0.777642 -2.578449 33.559889 -0.000000 -0.000001 -0.000002 3.764077 -12.080515 1.143771 5.714247 -4.535804 103.133370 3.160470 -4.410616 71.234925 -0.000000 0.000000 -0.000004 -12.155647 -12.623938 9.228349 6.566870 -4.248356 114.232271 3.755119 -4.569163 78.819761 -0.000001 0.000001 -0.000003 -17.635733 -10.496896 3.325445 4.993675 -4.645014 94.147942 3.647306 -4.546612 77.463354 -0.000000 -0.000003 0.000000 -62.486860 -32.439533 73.952992 106.038113 -18.821153 -21.321197 5.873288 -9.215359 -5.300337 -0.215429 0.098817 0.217589 0.000000 -0.000000 -0.000000 49.827285 22.626356 -73.451936 102.658590 31.547787 18.420045 -62.649248 6.495309 -7.051142 -47.855181 -21.772273 30.062965 0.000000 -0.000002 0.000000 
